<svg clip-rule="evenodd" fill-rule="evenodd" image-rendering="optimizeQuality" shape-rendering="geometricPrecision" text-rendering="geometricPrecision" version="1.1" viewBox="0 0 307 64" xmlns="http://www.w3.org/2000/svg">
 <path d="m110.5 1.5h-1c-1.599-0.26781-2.932 0.06552-4 1-0.722 1.0511-1.722 1.7178-3 2 1.588-3.9291 4.255-4.9291 8-3z" fill="#2d2404" opacity=".792"/>
 <path d="m109.5 1.5v3c-1.983 0.34316-3.317-0.32351-4-2 1.068-0.93448 2.401-1.2678 4-1z" fill="#d5a34b"/>
 <path d="m19.5 4.5h3v3h-3v-3z" fill="#e6c74d"/>
 <path d="m148.5 5.5h-1-4c-0.667 0.33333-1.333 0.66667-2 1-1.478 0.94753-2.478 2.2809-3 4 0.268-1.599-0.066-2.9324-1-4 3.569-1.9407 7.235-2.274 11-1z" fill="#533e07" opacity=".737"/>
 <path d="m101.5 4.5v1 1c-0.658 0.89836-1.324 1.8984-2 3-0.6835-0.36273-1.3501-0.69607-2-1-3.3333-1.3333-6.6667-1.3333-10 0h-5c-5-0.66667-10-1.3333-15-2-0.12-1.0862-0.7867-1.7528-2-2-1.2133 0.24716-1.88 0.91383-2 2v2c-0.6834 1.6765-2.0168 2.3432-4 2-4.5557-1.9417-9.5557-2.6083-15-2-0.891 0.60978-1.891 0.94312-3 1 0-0.66667-0.3333-1-1-1-3.1248-0.97944-6.4581-1.3128-10-1 9.8414-0.66664 19.841-1.3333 30-2 3.2337-2.7719 6.2337-2.6052 9 0.5 5.3854 0.2139 10.719 0.7139 16 1.5 5.4915-0.45206 10.825-1.4521 16-3z" fill="#432e0b"/>
 <path d="m67.5 6.5h-4c0.12-1.0862 0.7867-1.7528 2-2 1.2133 0.24716 1.88 0.91383 2 2z" fill="#e6ca5f"/>
 <path d="m109.5 1.5h1c0.61 0.89105 0.943 1.891 1 3s0.39 2.109 1 3c-2.45 0.20197-4.783-0.13137-7-1-1.068-0.93448-2.401-1.2678-4-1v-1h1c1.278-0.28219 2.278-0.94886 3-2 0.683 1.6765 2.017 2.3432 4 2v-3z" fill="#5f290c"/>
 <path d="m182.5 3.5c0.17 1.3221-0.163 2.4887-1 3.5-3.492-0.07044-6.492 0.76289-9 2.5h-1c-0.667-0.33333-1.333-0.66667-2-1-3.125-0.97944-6.458-1.3128-10-1v3h-9v-2c3.062 1.621 5.728 1.121 8-1.5 6.667-0.33333 13.333-0.66667 20-1 1.484-0.66218 2.817-1.4955 4-2.5z" fill="#3b2a07"/>
 <path d="m189.5 7.5v-1c7.519-0.32497 14.852 0.00837 22 1h-17c-0.667 0.33333-1.333 0.66667-2 1-0.709-0.90397-1.709-1.2373-3-1z" fill="#3a2603" opacity=".992"/>
 <path d="m216.5 7.5c6.153-1.1533 12.486-1.32 19-0.5 1.466 0.63547 2.8 1.4688 4 2.5 0.682-0.74269 1.349-1.4094 2-2v7c-0.667-0.6667-1.333-1.3333-2-2h-1c0-0.6667-0.333-1-1-1-0.535-1.9456-1.868-2.9456-4-3-5.475-0.98886-11.142-1.3222-17-1z" fill="#492f05" opacity=".996"/>
 <path d="m19.5 4.5v3c-0.6098 0.89105-0.9431 1.891-1 3-4.1516-1.5617-8.4849-2.2284-13-2v-1c4.8284-0.47742 9.4951-1.4774 14-3z" fill="#544315"/>
 <path d="m63.5 6.5h4c5 0.66667 10 1.3333 15 2h-1-18v-2z" fill="#a17b0a"/>
 <path d="m97.5 8.5h-9v4c2.0078 1.5826 4.3411 2.5826 7 3 0.3016 2.5593-0.0318 4.8926-1 7v-7h-7v-7c3.3333-1.3333 6.6667-1.3333 10 0z" fill="#987f14"/>
 <path d="m105.5 6.5c2.217 0.86863 4.55 1.202 7 1h1v1h-1c-2.888 0.51017-5.221-0.15649-7-2z" fill="#a7870e"/>
 <path d="m189.5 6.5v1c-1.548-0.32124-2.215-1.3212-2-3h-4v4c0.172 0.99162-0.162 1.6583-1 2-2.836-1.2755-5.836-1.9422-9-2v6c-0.951-1.4187-1.284-3.0853-1-5 2.508-1.7371 5.508-2.5704 9-2.5 0.837-1.0113 1.17-2.1779 1-3.5 3.566-1.8591 5.9-0.85906 7 3z" fill="#62480a"/>
 <path d="m189.5 7.5c1.291-0.23731 2.291 0.09603 3 1v1h-1c-1.765-0.96138-3.765-1.2947-6-1h-2v-4h4c-0.215 1.6788 0.452 2.6788 2 3z" fill="#c89a25"/>
 <path d="m216.5 7.5c5.858-0.3222 11.525 0.01114 17 1-5.344-0.16602-10.677 6.5e-4 -16 0.5-0.544 0.71719-1.211 1.2172-2 1.5 0.057-1.109 0.39-2.109 1-3z" fill="#bca726"/>
 <path d="m22.5 4.5c1.2368 1.4649 2.2368 3.1316 3 5-2.4496-0.20197-4.783 0.13137-7 1 0.0569-1.109 0.3902-2.109 1-3h3v-3z" fill="#cfa22a"/>
 <path d="m295.5 7.5h-1c-3.913-0.31323-7.579 0.35343-11 2-3.945-1.3255-8.278-1.9921-13-2-4.513 9.3e-4 -8.847 0.33426-13 1v5h-3v10c-0.667 0-1 0.3333-1 1h-1c1.244-4.7981 1.244-9.4648 0-14v-2c-3.125-0.97944-6.458-1.3128-10-1v44 1c-0.838-0.3417-1.172-1.0084-1-2v-36-7c18-1.3333 36-1.3333 54 0z" fill="#5c3a09"/>
 <path d="m257.5 8.5c4.153-0.66574 8.487-0.99907 13-1 4.722 0.00786 9.055 0.67453 13 2-8.582-0.96987-17.249-1.3032-26-1z" fill="#b8a724"/>
 <path d="m101.5 6.5v4c-1.9832 0.3432-3.3166-0.3235-4-2 0.6499 0.30393 1.3165 0.63727 2 1 0.676-1.1016 1.342-2.1016 2-3z" fill="#715001"/>
 <path d="m143.5 5.5c-0.219 1.175 0.114 2.175 1 3 1.713-0.37929 2.713-1.3793 3-3h1c0.901 0.79049 1.568 1.7905 2 3v2h-8c0.067-1.4588-0.266-2.7921-1-4 0.667-0.33333 1.333-0.66667 2-1z" fill="#954a0d"/>
 <path d="m143.5 5.5h4c-0.287 1.6207-1.287 2.6207-3 3-0.886-0.82496-1.219-1.825-1-3z" fill="#edc249"/>
 <path d="m194.5 8.5v-1h17v4c0.321 5.5262-0.012 10.86-1 16v-19h-7v3h-2v-3h-7z" fill="#b18314"/>
 <path d="m294.5 7.5v1c-0.934 1.0676-1.268 2.401-1 4-4.376-0.1373-8.709-0.304-13-0.5-2.069 0.3242-2.402 1.1575-1 2.5-2.099 4.4591-3.766 4.6257-5 0.5 0.88-1.3561 1.214-2.8561 1-4.5h-17c0.237 1.291-0.096 2.291-1 3v-5c8.751-0.30321 17.418 0.03013 26 1 3.421-1.6466 7.087-2.3132 11-2z" fill="#edd417"/>
 <path d="m19.5 4.5c1.5348-1.2879 3.2015-1.2879 5 0 1.0255 3.4174 3.0255 4.4174 6 3 3.5419-0.31277 6.8752 0.02056 10 1-3.5419-0.31277-6.8752 0.02056-10 1-0.7223 1.0511-1.7223 1.7178-3 2-0.3333-1-1-1.6667-2-2-0.7632-1.8684-1.7632-3.5351-3-5h-3z" fill="#60420a"/>
 <path d="m44.5 8.5c5.4443-0.60834 10.444 0.05833 15 2 2.0167 1.374 4.0167 1.2074 6-0.5 5-0.66667 10-0.66667 15 0-2.3333 0.3333-4.6667 0.6667-7 1 0.4574 0.414 0.7907 0.914 1 1.5-10.06 0.6898-20.06 1.3564-30 2v-6z" fill="#f9db1a"/>
 <path d="m63.5 8.5h18c0.3195 4.8633-0.0139 9.53-1 14v-7c-1.4305 0.0792-2.7638-0.2542-4-1-1.1951 1.797-2.8618 2.797-5 3-8.7871-1.656-17.787-2.656-27-3 9.9404-0.6436 19.94-1.3102 30-2-0.2093-0.586-0.5426-1.086-1-1.5 2.3333-0.3333 4.6667-0.6667 7-1-5-0.66667-10-0.66667-15 0-1.9833 1.7074-3.9833 1.874-6 0.5 1.9832 0.3432 3.3166-0.3235 4-2z" fill="#f2c51a"/>
 <path d="m113.5 8.5v-1c4.532-0.31822 8.866 0.01511 13 1h-10v5c-0.813-1.7608-1.813-3.4275-3-5z" fill="#794f05"/>
 <path d="m200.5 19.5c-0.996-0.0858-1.829 0.2476-2.5 1-0.333 1.6667-0.667 3.3333-1 5-0.417 1.256-1.25 1.9226-2.5 2v-1c0.989-5.4753 1.322-11.142 1-17h5v10z" fill="#fbde0e"/>
 <path d="m210.5 27.5c-2.052 0.5527-2.385 1.5527-1 3h3v1c-1.744 6.4993-2.411 13.166-2 20-2.107 0.9682-4.441 1.3016-7 1v-41-3h7v19z" fill="#fdd421"/>
 <path d="m294.5 8.5v5c-4.863-0.3195-9.53 0.0139-14 1v5c-1.175-0.219-2.175 0.1143-3 1 1.189 0.9287 2.522 1.262 4 1 0.079 1.4305-0.254 2.7638-1 4 0.355 1.0223 1.022 1.689 2 2 1.425 1.422 2.425 3.0887 3 5-1.648-1.3098-3.314-2.6431-5-4-0.683 0.3627-1.35 0.6961-2 1-0.672-0.7674-1.505-1.4341-2.5-2-0.497-2.646-0.664-5.3127-0.5-8h-5c0.157-1.3734-0.01-2.7068-0.5-4-0.181 3.1946-0.681 6.1946-1.5 9v-8c-3.184-1.9136-6.851-2.5803-11-2v-1c0.904-0.709 1.237-1.709 1-3h17c0.214 1.6439-0.12 3.1439-1 4.5 1.234 4.1257 2.901 3.9591 5-0.5-1.402-1.3425-1.069-2.1758 1-2.5 4.291 0.196 8.624 0.3627 13 0.5-0.268-1.599 0.066-2.9324 1-4z" fill="#f1cb18"/>
 <path d="m101.5 5.5c1.599-0.26781 2.932 0.06552 4 1 1.779 1.8435 4.112 2.5102 7 2v4c-5.375 0.3282-10.708-0.0052-16-1-2.0098-1.6713-4.3431-2.338-7-2 0.2373 1.291-0.096 2.291-1 3v-4h9c0.6834 1.6765 2.0168 2.3432 4 2v-4-1z" fill="#f3d71e"/>
 <path d="m141.5 6.5c0.734 1.2079 1.067 2.5412 1 4h8 9v-3c3.542-0.31277 6.875 0.02056 10 1-0.257 3.4322-0.924 6.7655-2 10-0.982-1.9061-1.982-3.9061-3-6-2.013-1.0964-3.846-0.7631-5.5 1-2.349-1.4765-4.516-1.3098-6.5 0.5 2.536 0.1862 4.869 0.6862 7 1.5h-17c9.528-2.3875 9.195-3.3875-1-3 0.149-1.052-0.017-2.052-0.5-3-2.088 3.6786-4.755 4.0119-8 1-0.221 4.0704 0.279 8.0704 1.5 12-0.996 0.0858-1.829-0.2476-2.5-1-0.499-4.3206-0.666-8.6539-0.5-13 2.218 0.11377 4.218 0.78043 6 2h1c0.522-1.7191 1.522-3.0525 3-4z" fill="#ebca23"/>
 <path d="m169.5 8.5c0.667 0.33333 1.333 0.66667 2 1 0.29 3.2847-0.377 6.2847-2 9h-2c1.076-3.2345 1.743-6.5678 2-10z" fill="#9d4909"/>
 <path d="m183.5 8.5h2c1.419 0.95115 3.085 1.2845 5 1-8e-3 3.0448-0.341 6.0448-1 9-2.9 0.0922-4.567-1.2411-5-4h-1c-1.889-0.822-3.889-1.6553-6-2.5 1.882-0.1981 3.548-0.6981 5-1.5 0.838-0.3417 1.172-1.0084 1-2z" fill="#fce814"/>
 <path d="m229.5 9.5c2.361 0.17412 4.694 0.5074 7 1v10c-0.617 0.1107-1.117 0.444-1.5 1-0.159-1.8427-0.659-2.5093-1.5-2-0.722-0.4175-1.222-1.0842-1.5-2-0.414 0.4574-0.914 0.7907-1.5 1-0.667 9.1577-1.333 18.158-2 27v-30c-0.273-1.951 0.393-3.451 2-4.5-0.556-0.3826-0.889-0.8826-1-1.5z" fill="#fbde19"/>
 <path d="m251.5 9.5c0.363 4.1827-0.304 8.1827-2 12 0.043 0.9164 0.376 1.5831 1 2 0 0.6667 0.333 1 1 1v2c-1.208-0.7341-2.541-1.0674-4-1-0.208-2.4201 0.126-4.7534 1-7-1.189-0.9287-2.522-1.262-4-1-1.23-5.9852 1.104-8.6518 7-8z" fill="#fcd911"/>
 <path d="m182.5 10.5c-1.452 0.8019-3.118 1.3019-5 1.5 2.111 0.8447 4.111 1.678 6 2.5h-10v-6c3.164 0.05779 6.164 0.72446 9 2z" fill="#f5cf2c"/>
 <path d="m233.5 8.5c2.132 0.05437 3.465 1.0544 4 3 0.329 12.844-5e-3 25.511-1 38v-29-10c-2.306-0.4926-4.639-0.82588-7-1-2.489-0.20223-4.823 0.29777-7 1.5 0.696 1.488 0.362 2.988-1 4.5-1.219-0.7634-2.219-1.7634-3-3-0.886 0.825-1.219 1.825-1 3-0.805 5.5025-1.471 11.169-2 17 0.123 1.4245 0.457 2.7579 1 4h-2v-1-3-21c0-0.6667 0.333-1 1-1 0.789-0.2828 1.456-0.78281 2-1.5 5.323-0.49935 10.656-0.66602 16-0.5z" fill="#f8da22"/>
 <path d="m229.5 9.5c0.111 0.6174 0.444 1.1174 1 1.5-1.607 1.049-2.273 2.549-2 4.5-1.188-1.1843-2.355-1.1843-3.5 0 0.102 4.4558-0.732 8.4558-2.5 12 0.308-2.424-0.026-4.7573-1-7-0.586 0.2093-1.086 0.5426-1.5 1-1.559-1.7166-2.392-3.7166-2.5-6-0.219-1.175 0.114-2.175 1-3 0.781 1.2366 1.781 2.2366 3 3 1.362-1.512 1.696-3.012 1-4.5 2.177-1.2022 4.511-1.7022 7-1.5z" fill="#fcd416"/>
 <path d="m5.5 8.5c4.5151-0.2284 8.8484 0.43827 13 2 2.217-0.86863 4.5504-1.202 7-1 1 0.33333 1.6667 1 2 2 0.1657 4.3461-1e-3 8.6794-0.5 13-0.6924 0.5253-1.1924 1.1919-1.5 2-6.2985 0.9963-12.632 1.3297-19 1-0.89105-0.6098-1.891-0.9431-3-1v-1c6.6384 0.998 13.305 1.1646 20 0.5-1-0.3333-2-0.6667-3-1 4.9559-0.0628 6.9559-2.5628 6-7.5-0.1515-2.6193-0.9848-4.9527-2.5-7-6.2926 0.7936-12.793 1.1269-19.5 1v-2c0-0.66667 0.33333-1 1-1z" fill="#f8cf26"/>
 <path d="m126.5 8.5c0.667 0 1 0.33333 1 1v6c-2.032 0.5478-3.032 1.8812-3 4-0.624-0.4169-0.957-1.0836-1-2 1.394-2.1457 2.06-4.479 2-7 0.838-0.3417 1.172-1.0084 1-2z" fill="#eaa920"/>
 <path d="m191.5 9.5h1c-0.617 6.0982 0.05 11.765 2 17v1h-3v-18z" fill="#e3881b"/>
 <path d="m194.5 8.5h7v3 41h-7c0.268-1.599-0.066-2.9324-1-4 0.342-0.8382 1.008-1.1716 2-1 0.8 2.2409 2.466 3.2409 5 3v-31-10h-5c0.322 5.858-0.011 11.525-1 17v-18z" fill="#fbd22a"/>
 <path d="m294.5 7.5h1v7h-15c4.47-0.9861 9.137-1.3195 14-1v-5-1z" fill="#e58c2f"/>
 <path d="m40.5 8.5c0.6667 0 1 0.33333 1 1 0.1323 3.0701-0.201 6.0701-1 9h-2c1.076-3.2345 1.7427-6.5678 2-10z" fill="#ad580f"/>
 <path d="m113.5 8.5c1.187 1.5725 2.187 3.2392 3 5-1.656 1.5603-3.656 2.5603-6 3h-1c-1.068-0.9345-2.401-1.2678-4-1 2.667-0.6667 5.333-1.3333 8-2v-5z" fill="#c06b0d"/>
 <path d="m127.5 9.5c1.265 1.0145 1.931 2.5145 2 4.5-0.167 1.5-0.333 3-0.5 4.5-0.383 0.556-0.883 0.8893-1.5 1h-1c0.333-1.3333 0.667-2.6667 1-4v-6z" fill="#6c250d"/>
 <path d="m173.5 14.5h10 1v5h-1v-4c-3.542 0.3128-6.875-0.0206-10-1z" fill="#b06f0d"/>
 <path d="m214.5 11.5v21c-0.667-0.3333-1.333-0.6667-2-1v-1c0.667-6.3333 1.333-12.667 2-19z" fill="#915f00"/>
 <path d="m295.5 7.5c0.901 0.79049 1.568 1.7905 2 3-0.951 1.4187-1.284 3.0853-1 5-4.202-0.3168-8.202 0.0166-12 1-1.624-1.6368-2.624-1.3034-3 1 0.247 1.2133 0.914 1.88 2 2-0.869 2.217-1.202 4.5504-1 7v1c-0.978-0.311-1.645-0.9777-2-2 0.746-1.2362 1.079-2.5695 1-4-1.478 0.262-2.811-0.0713-4-1 0.825-0.8857 1.825-1.219 3-1v-5h15v-7z" fill="#993e09"/>
 <path d="m126.5 8.5c0.172 0.99162-0.162 1.6583-1 2-1.083 0.0394-2.083 0.3728-3 1-0.634 2.0668-1.634 3.9002-3 5.5-2.452 0.2895-4.785 0.9562-7 2 1.558 0.21 2.891 0.71 4 1.5h-6v-4c2.344-0.4397 4.344-1.4397 6-3v-5h10z" fill="#f7d51d"/>
 <path d="m142.5 15.5h17v1h-16c-0.904 0.709-1.237 1.709-1 3-1.333-1.3333-1.333-2.6667 0-4z" fill="#e88f1f"/>
 <path d="m257.5 14.5c4.149-0.5803 7.816 0.0864 11 2-3.35 0.165-6.683-0.0017-10-0.5-0.556-0.3826-0.889-0.8826-1-1.5z" fill="#763203"/>
 <path d="m40.5 8.5c-0.2573 3.4322-0.924 6.7655-2 10h2v1 8h-10v-18c3.1248-0.97944 6.4581-1.3128 10-1z" fill="#efc136"/>
 <path d="m127.5 15.5c-0.333 1.3333-0.667 2.6667-1 4h-2c-0.032-2.1188 0.968-3.4522 3-4z" fill="#a94207"/>
 <path d="m207.5 31.5c-0.891-0.6098-1.891-0.9431-3-1v-20c1.322-0.17 2.489 0.1634 3.5 1 1.007 5.6816 0.507 11.182-1.5 16.5 0.489 1.1385 0.822 2.3052 1 3.5z" fill="#fee006"/>
 <path d="m251.5 8.5h1v2c0.228 4.5151-0.438 8.8484-2 13-0.624-0.4169-0.957-1.0836-1-2 1.696-3.8173 2.363-7.8173 2-12v-1z" fill="#f8b336"/>
 <path d="m143.5 16.5h16v2c-5.771 0.6128-11.104-0.0539-16-2z" fill="#813000"/>
 <path d="m171.5 9.5h1c-0.284 1.9147 0.049 3.5813 1 5 3.125 0.9794 6.458 1.3128 10 1v4c-3.331-1.7976-6.998-2.4643-11-2v8h-1c0.162-2.0273-5e-3 -4.0273-0.5-6-0.383-0.556-0.883-0.8893-1.5-1 1.623-2.7153 2.29-5.7153 2-9z" fill="#572313"/>
 <path d="m228.5 15.5v30h-1v-1c0.166-9.3393 0-18.673-0.5-28-1.102 4.6347-1.935 9.3014-2.5 14-1.548-0.3212-2.215-1.3212-2-3 1.768-3.5442 2.602-7.5442 2.5-12 1.145-1.1843 2.312-1.1843 3.5 0z" fill="#a65d01"/>
 <path d="m82.5 9.5v-1h5v7h7v7l-4 4h-3c-0.6499-0.3039-1.3165-0.6373-2-1-0.6668-5.4853-1.3335-10.819-2-16h-1z" fill="#412314"/>
 <path d="m113.5 13.5c-2.667 0.6667-5.333 1.3333-8 2-0.302 2.5593 0.032 4.8926 1 7 0.333 0.6667 0.667 1.3333 1 2-0.996 0.0858-1.829-0.2476-2.5-1-0.498-3.3168-0.665-6.6501-0.5-10h9z" fill="#ecb123"/>
 <path d="m105.5 15.5c1.599-0.2678 2.932 0.0655 4 1-1.56 1.6561-2.56 3.6561-3 6-0.968-2.1074-1.302-4.4407-1-7z" fill="#943a03"/>
 <path d="m143.5 16.5c4.896 1.9461 10.229 2.6128 16 2-0.342 0.8382-1.008 1.1716-2 1h-14-1c-0.237-1.291 0.096-2.291 1-3z" fill="#824d00"/>
 <path d="m167.5 18.5v5c-5.64 0.6002-10.973-0.2332-16-2.5 2.208-0.1909 4.208-0.6909 6-1.5 0.992 0.1716 1.658-0.1618 2-1v-2-1c-2.131-0.8138-4.464-1.3138-7-1.5 1.984-1.8098 4.151-1.9765 6.5-0.5 1.654-1.7631 3.487-2.0964 5.5-1 1.018 2.0939 2.018 4.0939 3 6z" fill="#fadc0e"/>
 <path d="m284.5 16.5c0.237 1.291-0.096 2.291-1 3-1.086-0.12-1.753-0.7867-2-2 0.376-2.3034 1.376-2.6368 3-1z" fill="#d7873d"/>
 <path d="m5.5 7.5v1c-0.66667 0-1 0.33333-1 1-0.61742 0.11071-1.1174 0.44404-1.5 1-0.81508 4.8522-0.64841 9.5189 0.5 14v1 1c-0.64987-0.3039-1.3165-0.6373-2-1-0.6672-3.4773-1.3339-6.8107-2-10v-2c1.1751-1.4738 2.1751-3.1404 3-5 0.91683-0.62723 1.9168-0.96056 3-1z" fill="#45310c"/>
 <path d="m3.5 25.5v-1c-0.31822-4.5323 0.01511-8.8656 1-13 6.7074 0.1269 13.207-0.2064 19.5-1 1.5152 2.0473 2.3485 4.3807 2.5 7 0.9559 4.9372-1.0441 7.4372-6 7.5 1 0.3333 2 0.6667 3 1-6.695 0.6646-13.362 0.498-20-0.5z" fill="#fbdf0d"/>
 <path d="m17.5 19.5c0 0.6667-0.3333 1-1 1h-3v-5h4v4z" fill="#7f3f01"/>
 <path d="m17.5 19.5v-4h-4v5h3c-0.7613 0.8909-1.7613 1.5576-3 2-0.8267-1.662-1.9933-2.9954-3.5-4 0.2464-4.8649 2.7464-6.1983 7.5-4 1.2879 1.7985 1.2879 3.4652 0 5z" fill="#f3c51a"/>
 <path d="m38.5 18.5c0.888 2.5545 1.2214 5.2212 1 8h-8v-17h8c-0.4153 2.2468-1.0819 4.4135-2 6.5 0.028 1.0698 0.3614 1.9032 1 2.5z" fill="#fcdf13"/>
 <path d="m111.5 4.5c0.789 0.28281 1.456 0.78281 2 1.5 7.993 0.49971 15.993 0.66638 24 0.5 0.934 1.0676 1.268 2.401 1 4h-1c-1.387-2.8261-3.387-3.4928-6-2-0.166 4.3461 1e-3 8.6794 0.5 13 0.671 0.7524 1.504 1.0858 2.5 1 0.333 1 1 1.6667 2 2-1.765 0.9614-3.765 1.2947-6 1-0.667-1.3333-1.333-2.6667-2-4-0.838-0.3417-1.172-1.0084-1-2 0.617-0.1107 1.117-0.444 1.5-1 0.167-1.5 0.333-3 0.5-4.5-0.069-1.9855-0.735-3.4855-2-4.5 0-0.66667-0.333-1-1-1-4.134-0.98489-8.468-1.3182-13-1h-1c-0.61-0.89105-0.943-1.891-1-3z" fill="#442609"/>
 <path d="m131.5 8.5c2.613-1.4928 4.613-0.82608 6 2-1.782-1.2196-3.782-1.8862-6-2z" fill="#866808"/>
 <path d="m194.5 7.5v1 18c-1.95-5.2351-2.617-10.902-2-17v-1c0.667-0.33333 1.333-0.66667 2-1z" fill="#994600"/>
 <path d="m257.5 13.5v1c0.111 0.6174 0.444 1.1174 1 1.5 3.317 0.4983 6.65 0.665 10 0.5v8h-1c-0.961-1.7646-1.295-3.7646-1-6h-5v7c-1.459-0.0674-2.792 0.2659-4 1 0-0.6667-0.333-1-1-1 0-1.3333-0.667-2-2-2v-10h3z" fill="#3b2121"/>
 <path d="m4.5 9.5v2c-0.98489 4.1344-1.3182 8.4677-1 13-1.1484-4.4811-1.3151-9.1478-0.5-14 0.38258-0.55596 0.88258-0.88929 1.5-1z" fill="#d0b73e"/>
 <path d="m80.5 22.5c-7.5191-0.325-14.852 0.0084-22 1-0.8382 0.3417-1.1716 1.0084-1 2v1c-0.6667-0.3333-1.3333-0.6667-2-1-0.5431-0.06-0.8764-0.3933-1-1 2.9291-1.1486 3.4291-2.8153 1.5-5-2.8214 1.0098-5.988 1.0098-9.5 0 8.3333-0.6667 16.667-1.3333 25-2 2.1382-0.203 3.8049-1.203 5-3 1.2362 0.7458 2.5695 1.0792 4 1v7z" fill="#fddd0c"/>
 <path d="m113.5 28.5v2 2c-4.368 0.2413-8.368-0.7587-12-3-0.17-1.3221 0.163-2.4887 1-3.5 2.045-0.4901 4.045-0.3235 6 0.5h1c0.838-0.3417 1.172-1.0084 1-2 2.781 1.323 5.447 1.1563 8-0.5-1.231-1.1827-1.231-2.3493 0-3.5 5.096 2.0728 7.096 5.9061 6 11.5-0.156 3.2001-0.489 6.3668-1 9.5h-4c-0.333-4.6667-0.667-9.3333-1-14-1.915-0.2845-3.581 0.0489-5 1z" fill="#fbe308"/>
 <path d="m142.5 15.5c-1.333 1.3333-1.333 2.6667 0 4h1c1.719 0.5221 3.052 1.5221 4 3-3.184 1.9136-6.851 2.5803-11 2-1-0.3333-1.667-1-2-2-1.221-3.9296-1.721-7.9296-1.5-12 3.245 3.0119 5.912 2.6786 8-1 0.483 0.948 0.649 1.948 0.5 3 10.195-0.3875 10.528 0.6125 1 3z" fill="#fadb10"/>
 <path d="m167.5 18.5h2v6h-17c-1.052-1.756-2.719-2.4227-5-2-0.948-1.4779-2.281-2.4779-4-3h14c-1.792 0.8091-3.792 1.3091-6 1.5 5.027 2.2668 10.36 3.1002 16 2.5v-5z" fill="#fbcc2d"/>
 <path d="m112.5 8.5h1v5h-9c-0.165 3.3499 2e-3 6.6832 0.5 10 0.671 0.7524 1.504 1.0858 2.5 1 0.333 0.6667 0.667 1.3333 1 2-1.955-0.8235-3.955-0.9901-6-0.5-0.837 1.0113-1.17 2.1779-1 3.5-2.6142-0.2229-4.2809 0.9438-5 3.5-2.646 0.4974-5.3127 0.6641-8 0.5v-1c1.5972-0.5905 2.9305-1.5905 4-3 0.7935 0.4312 1.6268 0.7645 2.5 1 1.3002-1.2073 2.8002-1.8739 4.5-2 0.967-5.2255-0.3659-9.5589-4-13-2.6589-0.4174-4.9922-1.4174-7-3 0.904-0.709 1.2373-1.709 1-3 2.6569-0.33798 4.9902 0.32869 7 2 5.292 0.9948 10.625 1.3282 16 1v-4z" fill="#fddb12"/>
 <path d="m109.5 16.5v10h-1c-0.333-0.6667-0.667-1.3333-1-2s-0.667-1.3333-1-2c0.44-2.3439 1.44-4.3439 3-6z" fill="#512d02"/>
 <path d="m125.5 10.5c0.06 2.521-0.606 4.8543-2 7 0.043 0.9164 0.376 1.5831 1 2h2v24h-9v-15h-4c1.419-0.9511 3.085-1.2845 5-1 0.333 4.6667 0.667 9.3333 1 14h4c0.511-3.1332 0.844-6.2999 1-9.5 1.096-5.5939-0.904-9.4272-6-11.5-1.231 1.1507-1.231 2.3173 0 3.5-2.553 1.6563-5.219 1.823-8 0.5 2-1.3333 4-2.6667 6-4-1.109-0.79-2.442-1.29-4-1.5 2.215-1.0438 4.548-1.7105 7-2 1.366-1.5998 2.366-3.4332 3-5.5 0.917-0.6272 1.917-0.9606 3-1z" fill="#fcda19"/>
 <path d="m81.5 8.5h1v1 14h-24c7.1476-0.9916 14.481-1.325 22-1 0.9861-4.47 1.3195-9.1367 1-14z" fill="#faba2b"/>
 <path d="m169.5 18.5c0.617 0.1107 1.117 0.444 1.5 1 0.495 1.9727 0.662 3.9727 0.5 6-0.992 0.1716-1.658-0.1618-2-1v-6z" fill="#9a3b1c"/>
 <path d="m252.5 10.5c1.244 4.5352 1.244 9.2019 0 14h-1c-0.667 0-1-0.3333-1-1 1.562-4.1516 2.228-8.4849 2-13z" fill="#994308"/>
 <path d="m267.5 24.5v1c-1.956 1.6139-3.956 3.2806-6 5-1.599 0.2678-2.932-0.0655-4-1v-3c1.208-0.7341 2.541-1.0674 4-1v-7h5c-0.295 2.2354 0.039 4.2354 1 6z" fill="#33212b"/>
 <path d="m109.5 16.5h1v4h6c-2 1.3333-4 2.6667-6 4 0.172 0.9916-0.162 1.6583-1 2v-10z" fill="#ad880c"/>
 <path d="m183.5 19.5c0.079 1.4305-0.254 2.7638-1 4-3.206 1.3079-6.54 1.9746-10 2v-8c4.002-0.4643 7.669 0.2024 11 2z" fill="#3d2724"/>
 <path d="m201.5 11.5h2v41h-2v-41z" fill="#ce7201"/>
 <path d="m236.5 20.5v29c0 0.6667-0.333 1-1 1-2.357 0.1633-4.69-0.0034-7-0.5-1.122-1.6134-0.622-2.7801 1.5-3.5 0.169-7.0236 0.669-14.024 1.5-21 1.586-1.6727 2.253-3.6727 2-6 0.841-0.5093 1.341 0.1573 1.5 2 0.383-0.556 0.883-0.8893 1.5-1z" fill="#fce505"/>
 <path d="m298.5 15.5c-1.068 2.2402-2.734 4.0736-5 5.5 3.443 0.2213 3.776 1.2213 1 3-2.863 1.3989-5.863 2.3989-9 3 3.007 2.9005 6.674 4.4005 11 4.5 0.798 0.4569 1.131 1.1236 1 2h-1c-0.709-0.904-1.709-1.2373-3-1-4.493 0.0156-7.826-1.9844-10-6-0.157-1.3734 0.01-2.7068 0.5-4 1.675-1.0955 2.842-2.5955 3.5-4.5 3.633-1.077 7.299-1.9103 11-2.5z" fill="#321f2f" opacity=".286"/>
 <path d="m82.5 9.5h1v16h-26c-0.1716-0.9916 0.1618-1.6583 1-2h24v-14z" fill="#a83d02"/>
 <path d="m211.5 7.5c1.667 1.3333 3.333 1.3333 5 0-0.61 0.89105-0.943 1.891-1 3-0.667 0-1 0.3333-1 1-0.667 6.3333-1.333 12.667-2 19h-3c0.672-0.7674 1.505-1.4341 2.5-2 0.818-5.8487 0.652-11.515-0.5-17v-4z" fill="#6c2301"/>
 <path d="m297.5 10.5c0.538 1.6172 0.871 3.2839 1 5-3.701 0.5897-7.367 1.423-11 2.5-0.658 1.9045-1.825 3.4045-3.5 4.5-0.49 1.2932-0.657 2.6266-0.5 4h-1c-0.202-2.4496 0.131-4.783 1-7 0.904-0.709 1.237-1.709 1-3 3.798-0.9834 7.798-1.3168 12-1-0.284-1.9147 0.049-3.5813 1-5z" fill="#622" opacity=".992"/>
 <path d="m44.5 8.5v6c9.2129 0.344 18.213 1.344 27 3h-27v10c-0.9682 2.1074-1.3016 4.4407-1 7h-1c0.3182-4.5323-0.0151-8.8656-1-13 0.1716-0.9916-0.1618-1.6583-1-2v-1c0.799-2.9299 1.1323-5.9299 1-9 1.109-0.05688 2.109-0.39022 3-1z" fill="#7d4006"/>
 <path d="m46.5 19.5c3.512 1.0098 6.6786 1.0098 9.5 0 1.9291 2.1847 1.4291 3.8514-1.5 5 0.1236 0.6067 0.4569 0.94 1 1-0.0858 0.9959 0.2476 1.8292 1 2.5 1.6667 0.3333 3.3333 0.6667 5 1-3.9862 0.4988-7.9862 0.6655-12 0.5-0.9959 0.0858-1.8292-0.2476-2.5-1-0.498-2.9816-0.6646-5.9816-0.5-9z" fill="#fce704"/>
 <path d="m147.5 22.5c2.281-0.4227 3.948 0.244 5 2h17c0.342 0.8382 1.008 1.1716 2 1v6c-0.992-0.1716-1.658 0.1618-2 1-12.178-0.3284-24.178 0.0049-36 1v3c8.184-0.3257 16.184 0.0076 24 1h-25c0.475-2.5821-0.192-4.5821-2-6v-6c2.235 0.2947 4.235-0.0386 6-1 4.149 0.5803 7.816-0.0864 11-2z" fill="#d1970b"/>
 <path d="m152.5 24.5c-0.886 1.2759-1.886 1.2759-3 0 0.925-1.0624 1.925-1.0624 3 0z" fill="#793100"/>
 <path d="m183.5 19.5h1c0.997-0.0299 1.664 0.4701 2 1.5-1.175 1.8591-2.175 3.6924-3 5.5h-10c-0.667 0-1-0.3333-1-1 3.46-0.0254 6.794-0.6921 10-2 0.746-1.2362 1.079-2.5695 1-4z" fill="#473107"/>
 <path d="m211.5 11.5c1.152 5.4846 1.318 11.151 0.5 17-0.995 0.5659-1.828 1.2326-2.5 2-1.385-1.4473-1.052-2.4473 1-3 0.988-5.1405 1.321-10.474 1-16z" fill="#9d3b01"/>
 <path d="m254.5 23.5c1.333 0 2 0.6667 2 2s-0.667 2-2 2c-0.904-0.709-1.237-1.709-1-3 0-0.6667 0.333-1 1-1z" fill="#d09c46"/>
 <path d="m30.5 9.5v18h10v-8c0.8382 0.3417 1.1716 1.0084 1 2 0.325 7.5191-0.0084 14.852-1 22v-15h-34v-1c6.3682 0.3297 12.702-0.0037 19-1 0.3076-0.8081 0.8076-1.4747 1.5-2 0.499-4.3206 0.6657-8.6539 0.5-13 1.2777-0.2822 2.2777-0.9489 3-2z" fill="#ae5504"/>
 <path d="m126.5 19.5h1c-0.172 0.9916 0.162 1.6583 1 2v26h-1c-9-0.6667-18-1.3333-27-2h2 1c5.119 0.6031 9.785-0.0636 14-2h9v-24z" fill="#9e5707"/>
 <path d="m278.5 29.5c-6.028-0.8294-10.028 1.8372-12 8-2.469 0.6681-4.802 1.3347-7 2h-2v-6c1.699 0.1602 3.366-0.0065 5-0.5 1.889-2.3818 3.555-4.8818 5-7.5v-1h1c0.819-2.8054 1.319-5.8054 1.5-9 0.49 1.2932 0.657 2.6266 0.5 4h5c-0.164 2.6873 3e-3 5.354 0.5 8 0.995 0.5659 1.828 1.2326 2.5 2z" fill="#f6d914"/>
 <path d="m-0.5 15.5c0.66614 3.1893 1.3328 6.5227 2 10 0.68346 0.3627 1.3501 0.6961 2 1-0.17726 3.7343 0.15608 7.4009 1 11-0.66667-0.3333-1.3333-0.6667-2-1-0.47306-1.4063-1.4731-2.073-3-2v-1c1.3333-0.3333 1.3333-0.6667 0-1v-17z" fill="#3b2a21" opacity=".667"/>
 <path d="m185.5 8.5c2.235-0.29472 4.235 0.03862 6 1v18h3c0.572 1.7554 1.406 3.4221 2.5 5 0.203 3.9213 0.703 7.7546 1.5 11.5-0.948 0.4828-1.948 0.6495-3 0.5 0.315-3.8714-0.018-7.5381-1-11-5.14-0.9881-10.474-1.3214-16-1 0.162 2.0273-5e-3 4.0273-0.5 6-1.741-2.0412-1.908-4.2079-0.5-6.5-1.473-0.7096-2.14-1.8762-2-3.5 3.198 0.5356 5.865-0.131 8-2 0.825-1.8076 1.825-3.6409 3-5.5-0.336-1.0299-1.003-1.5299-2-1.5v-5c0.433 2.7589 2.1 4.0922 5 4 0.659-2.9552 0.992-5.9552 1-9-1.915 0.28448-3.581-0.04885-5-1z" fill="#fae013"/>
 <path d="m55.5 25.5c0.6667 0.3333 1.3333 0.6667 2 1 8.0069-0.1664 16.007 3e-4 24 0.5-1.4733 0.7096-2.1399 1.8762-2 3.5-10.181 0.3274-20.181-6e-3 -30-1 4.0138 0.1655 8.0138-0.0012 12-0.5-1.6667-0.3333-3.3333-0.6667-5-1-0.7524-0.6708-1.0858-1.5041-1-2.5z" fill="#fde316"/>
 <path d="m95.5 15.5c3.6341 3.4411 4.967 7.7745 4 13-1.6998 0.1261-3.1998 0.7927-4.5 2-0.8732-0.2355-1.7065-0.5688-2.5-1-1.0695 1.4095-2.4028 2.4095-4 3-0.2413-2.3863 0.4254-4.3863 2-6l4-4c0.9682-2.1074 1.3016-4.4407 1-7z" fill="#f6e018"/>
 <path d="m131.5 26.5h39v4h-39v-4z" fill="#fed621"/>
 <path d="m44.5 27.5c1 1.6667 2.3333 3 4 4v1 2h-5c-0.3016-2.5593 0.0318-4.8926 1-7z" fill="#4d3105"/>
 <path d="m71.5 17.5c-8.3333 0.6667-16.667 1.3333-25 2-0.1646 3.0184 2e-3 6.0184 0.5 9 0.6708 0.7524 1.5041 1.0858 2.5 1 9.8194 0.994 19.819 1.3274 30 1-10.153 0.9942-20.486 1.3276-31 1-1.6667-1-3-2.3333-4-4v-10h27z" fill="#fdd927"/>
 <path d="m87.5 26.5h3c-1.5746 1.6137-2.2413 3.6137-2 6v1c-0.9682-2.1074-1.3016-4.4407-1-7z" fill="#ad9521"/>
 <path d="m238.5 12.5h1c1.085 12.307 1.252 24.64 0.5 37-0.662 1.4839-1.496 2.8172-2.5 4v1h-10c-3.329 0.2847-6.329-0.3819-9-2 5.858 0.3222 11.525-0.0111 17-1 0.996 0.0858 1.829-0.2476 2.5-1 0.5-12.662 0.667-25.329 0.5-38z" fill="#903707"/>
 <path d="m3.5 26.5c1.109 0.0569 2.109 0.3902 3 1v1c-1.1935 0.4704-1.8602 1.4704-2 3 0.01954 1.2261 0.35287 2.2261 1 3 0 0.6667 0.33333 1 1 1-0.33333 0.6667-0.66667 1.3333-1 2h-1c-0.84392-3.5991-1.1773-7.2657-1-11z" fill="#4c2f03"/>
 <path d="m27.5 29.5c0.2036 2.1854 0.8702 4.1854 2 6h-23c-0.66667 0-1-0.3333-1-1v-5h22z" fill="#fad417"/>
 <path d="m57.5 26.5v-1h26v2c-0.9793 1.2653-1.9793 2.5986-3 4-10.312 0.9986-20.645 1.3319-31 1h-1v-1c10.514 0.3276 20.847-0.0058 31-1-0.1399-1.6238 0.5267-2.7904 2-3.5-7.9931-0.4997-15.993-0.6664-24-0.5z" fill="#eaa824"/>
 <path d="m83.5 9.5c0.6665 5.1813 1.3332 10.515 2 16 0.6835 0.3627 1.3501 0.6961 2 1-0.3016 2.5593 0.0318 4.8926 1 7 0.6098 0.891 0.9431 1.891 1 3-0.315 3.8714 0.0184 7.5381 1 11v1c-0.6174 0.1107-1.1174 0.444-1.5 1-0.1787-3.5252-0.6787-6.8586-1.5-10 0.0979-2.0529-0.5687-3.7196-2-5h-4v-1c1.5542-1.4142 2.8875-3.0808 4-5-0.4569-0.7975-1.1236-1.1309-2-1v-2-16z" fill="#532a05"/>
 <path d="m217.5 15.5c0.108 2.2834 0.941 4.2834 2.5 6 0.414-0.4574 0.914-0.7907 1.5-1 0.974 2.2427 1.308 4.576 1 7-0.734 1.3775-1.401 2.8775-2 4.5 1.791 2.1062 2.458 4.6062 2 7.5-4 0.6667-4 1.3333 0 2v5c0.591 0.6515 1.257 1.3182 2 2-0.5 0.3333-1 0.6667-1.5 1-1.921-1.5028-4.088-2.1695-6.5-2 0.835-3.8397 0.835-7.5063 0-11-0.543-1.2421-0.877-2.5755-1-4 0.529-5.8308 1.195-11.498 2-17z" fill="#fbe60a"/>
 <path d="m267.5 25.5c-1.445 2.6182-3.111 5.1182-5 7.5-1.634 0.4935-3.301 0.6602-5 0.5v6c-0.973-2.4479-1.306-5.1146-1-8 1.915 0.2845 3.581-0.0489 5-1 2.044-1.7194 4.044-3.3861 6-5z" fill="#4f420d"/>
 <path d="m278.5 29.5c0.65-0.3039 1.317-0.6373 2-1 1.686 1.3569 3.352 2.6902 5 4h1c3 0.6667 6 1.3333 9 2-0.203 1.5443-0.87 2.8777-2 4-3.607 0.9892-7.274 1.3226-11 1-1-0.6667-2-1.3333-3-2-0.238-1.9044-1.238-3.2377-3-4-0.814-1.7726-2.148-2.2726-4-1.5-1.667 2.3333-3.333 4.6667-5 7-2.646 0.4974-5.313 0.6641-8 0.5 2.198-0.6653 4.531-1.3319 7-2 1.972-6.1628 5.972-8.8294 12-8z" fill="#f1cf1d"/>
 <path d="m282.5 26.5h1c2.174 4.0156 5.507 6.0156 10 6h-7-1c-0.575-1.9113-1.575-3.578-3-5v-1z" fill="#412d09"/>
 <path d="m83.5 27.5c0.8764-0.1309 1.5431 0.2025 2 1-1.1125 1.9192-2.4458 3.5858-4 5-10.846 0.3278-21.513-0.0056-32-1 10.355 0.3319 20.688-0.0014 31-1 1.0207-1.4014 2.0207-2.7347 3-4z" fill="#ab4b04"/>
 <path d="m101.5 30.5v-1c3.632 2.2413 7.632 3.2413 12 3-2.448 0.9731-5.115 1.3064-8 1-1.333-1-2.667-2-4-3z" fill="#facb37"/>
 <path d="m133.5 33.5c11.822-0.9951 23.822-1.3284 36-1v13h-26v-1c4.591-0.3022 9.091-0.9689 13.5-2 0.383 0.556 0.883 0.8893 1.5 1h10c0.284-3.2766-0.049-6.4433-1-9.5-11.328-0.4999-22.662-0.6665-34-0.5z" fill="#f6c223"/>
 <path d="m256.5 25.5c0.667 0 1 0.3333 1 1v3h-3c0.325 7.8516-8e-3 15.518-1 23-0.302-8.4183 0.031-16.752 1-25 1.333 0 2-0.6667 2-2z" fill="#782a10"/>
 <path d="m286.5 32.5h7c1.291-0.2373 2.291 0.096 3 1v1h-1c-3-0.6667-6-1.3333-9-2z" fill="#9a8333"/>
 <path d="m6.5 28.5h34v15c-8.1499 0.9927-16.483 1.3261-25 1 7.8159-0.9924 15.816-1.3257 24-1v-14h-8-4-22v5c-0.64713-0.7739-0.98046-1.7739-1-3 0.13985-1.5296 0.80652-2.5296 2-3z" fill="#ed9e29"/>
 <path d="m48.5 32.5h1c10.487 0.9944 21.154 1.3278 32 1v1h-33v-2z" fill="#7c3800"/>
 <path d="m113.5 30.5h1v4h-9v-1c2.885 0.3064 5.552-0.0269 8-1v-2z" fill="#d36917"/>
 <path d="m133.5 33.5c11.338-0.1665 22.672 1e-4 34 0.5 0.951 3.0567 1.284 6.2234 1 9.5h-10c2.787-0.9767 5.787-1.31 9-1 0.268-2.6194-0.065-5.1194-1-7.5-3.43-0.6378-4.763 0.8622-4 4.5h-3c0-1.3333-0.667-2-2-2-7.816-0.9924-15.816-1.3257-24-1v-3z" fill="#fedd12"/>
 <path d="m194.5 33.5v2h-1c-3.798-0.9834-7.798-1.3168-12-1v5 6c-0.949-1.4228-1.949-2.9228-3-4.5 1.585-2.2562 2.252-4.7562 2-7.5h14z" fill="#be630b"/>
 <path d="m42.5 34.5h1 5 33 4v1h-38-3c-0.9511 1.4187-1.2845 3.0853-1 5 4.5323-0.3182 8.8656 0.0151 13 1h-14v-7z" fill="#ce9922"/>
 <path d="m101.5 29.5v1c-1.465 0.9057-2.4649 2.239-3 4 0.4569 0.7975 1.1236 1.1309 2 1v1h-11c-0.0569-1.109-0.3902-2.109-1-3 2.6873 0.1641 5.354-0.0026 8-0.5 0.7191-2.5562 2.3858-3.7229 5-3.5z" fill="#a84b05"/>
 <path d="m116.5 35.5c-3.871 0.315-7.538-0.0184-11-1h9v-4c0.06-0.5431 0.393-0.8764 1-1 0.966 1.896 1.299 3.896 1 6z" fill="#903302"/>
 <path d="m193.5 35.5c-3.213-0.31-6.213 0.0233-9 1-0.838 0.3417-1.172 1.0084-1 2-0.667 0.3333-1.333 0.6667-2 1v-5c4.202-0.3168 8.202 0.0166 12 1z" fill="#962809"/>
 <path d="m239.5 12.5c0.667 0.6667 1.333 1.3333 2 2v36c-0.736 1.7294-2.07 2.7294-4 3 1.004-1.1828 1.838-2.5161 2.5-4 0.752-12.36 0.585-24.693-0.5-37z" fill="#611b05"/>
 <path d="m6.5 35.5h23c0.8382 0.3417 1.1716 1.0084 1 2h-25c0.33333-0.6667 0.66667-1.3333 1-2z" fill="#a34700"/>
 <path d="m227.5 44.5c-0.825-4.1472-1.325-8.4805-1.5-13-0.383-0.556-0.883-0.8893-1.5-1 0.565-4.6986 1.398-9.3653 2.5-14 0.5 9.3274 0.666 18.661 0.5 28z" fill="#672401"/>
 <path d="m251.5 24.5h1v28h-10v-1h1 8v-22-3-2z" fill="#fcb335"/>
 <path d="m257.5 29.5c1.068 0.9345 2.401 1.2678 4 1-1.419 0.9511-3.085 1.2845-5 1-0.306 2.8854 0.027 5.5521 1 8 1.79 1.4973 3.956 2.164 6.5 2 2.775 0.0908 5.275-0.5759 7.5-2v3c-5.38 0.1757-10.713-0.1576-16-1v3 1c-0.302 2.5593 0.032 4.8926 1 7h1c12.493 1.16 25.16 1.3267 38 0.5 1.66-1.4877 2.66-3.321 3-5.5-5.235-1.95-10.902-2.6167-17-2v-1h18c0.478 3.8375-0.522 7.1709-3 10-19.7 0.2288-39.366 0.2288-59 0v-1c1.93-0.2706 3.264-1.2706 4-3-0.172 0.9916 0.162 1.6583 1 2 3.667 1.3333 7.333 1.3333 11 0 0.992-7.4818 1.325-15.148 1-23h3z" fill="#582419"/>
 <path d="m276.5 33.5c1.762 0.7623 2.762 2.0956 3 4-1.762-0.7623-2.762-2.0956-3-4z" fill="#6d4f12"/>
 <path d="m41.5 21.5c0.9849 4.1344 1.3182 8.4677 1 13v7h14v2h-2c-4.4707-0.5894-8.4707 0.0772-12 2h-27v-1c8.5168 0.3261 16.85-0.0073 25-1 0.9916-7.1476 1.325-14.481 1-22z" fill="#8f3404"/>
 <path d="m171.5 25.5h1c0 0.6667 0.333 1 1 1-0.313 3.0716 0.354 5.905 2 8.5-1.756 3.6161-2.423 7.4494-2 11.5-1.52 2.0884-2.52 4.4217-3 7 0.295-2.2354-0.039-4.2354-1-6 0.283-0.7891 0.783-1.4558 1.5-2 0.499-4.6548 0.666-9.3215 0.5-14v-6z" fill="#723b08"/>
 <path d="m200.5 19.5v31c-2.534 0.2409-4.2-0.7591-5-3v-3c1.052 0.1495 2.052-0.0172 3-0.5-0.797-3.7454-1.297-7.5787-1.5-11.5-1.094-1.5779-1.928-3.2446-2.5-5 1.25-0.0774 2.083-0.744 2.5-2 0.333-1.6667 0.667-3.3333 1-5 0.671-0.7524 1.504-1.0858 2.5-1z" fill="#fbe607"/>
 <path d="m237.5 11.5c0.667 0 1 0.3333 1 1 0.167 12.671 0 25.338-0.5 38-0.671 0.7524-1.504 1.0858-2.5 1v-1c0.667 0 1-0.3333 1-1 0.995-12.489 1.329-25.156 1-38z" fill="#fdb033"/>
 <path d="m44.5 35.5h3c6.479 0.9907 13.146 1.324 20 1v4c-1.6439-0.2135-3.1439 0.1198-4.5 1 0.5356 1.947 0.2022 3.947-1 6-1.016-1.1341-1.6827-0.8008-2 1-1.7875-1.8326-1.9542-3.8326-0.5-6-0.4767-0.9776-1.1433-1.8109-2-2.5-3.2058-0.2963-6.3725-0.7963-9.5-1.5-2.7243 1.338-3.8909 0.338-3.5-3z" fill="#fce60a"/>
 <path d="m47.5 35.5h38v1l-4 4h-14v-4c-6.8543 0.324-13.521-0.0093-20-1z" fill="#fede1c"/>
 <path d="m128.5 21.5c0.667 1.3333 1.333 2.6667 2 4v6c-0.99 5.81-1.323 11.81-1 18-0.333 1-1 1.6667-2 2 0.333-1.3333 0.667-2.6667 1-4v-26z" fill="#67220f"/>
 <path d="m173.5 26.5h10c-2.135 1.869-4.802 2.5356-8 2-0.14 1.6238 0.527 2.7904 2 3.5-1.408 2.2921-1.241 4.4588 0.5 6.5 0.495-1.9727 0.662-3.9727 0.5-6 5.526-0.3214 10.86 0.0119 16 1h-14c0.252 2.7438-0.415 5.2438-2 7.5 1.051 1.5772 2.051 3.0772 3 4.5h13c-4.848 1.3137-9.848 1.3137-15 0-1.516-1.8912-2.85-3.8912-4-6-0.98 2.5865-1.313 5.2531-1 8h-1v-1c-0.423-4.0506 0.244-7.8839 2-11.5-1.646-2.595-2.313-5.4284-2-8.5z" fill="#e7c621"/>
 <path d="m251.5 8.5v1c-5.896-0.65182-8.23 2.0148-7 8v33h6c-0.325-7.1866 9e-3 -14.187 1-21v22h-8v-43h8z" fill="#fadb1f"/>
 <path d="m244.5 17.5c1.478-0.262 2.811 0.0713 4 1-0.874 2.2466-1.208 4.5799-1 7 1.459-0.0674 2.792 0.2659 4 1v3c-0.991 6.8134-1.325 13.813-1 21h-6v-33z" fill="#fbe205"/>
 <path d="m276.5 33.5c-3.041 0.6991-4.708 2.6991-5 6-2.225 1.4241-4.725 2.0908-7.5 2-2.544 0.164-4.71-0.5027-6.5-2h2c2.687 0.1641 5.354-0.0026 8-0.5 1.667-2.3333 3.333-4.6667 5-7 1.852-0.7726 3.186-0.2726 4 1.5z" fill="#aa3d14"/>
 <path d="m132.5 37.5h25c1.333 0 2 0.6667 2 2h-27v-2z" fill="#a74600"/>
 <path d="m214.5 36.5h2c-1.376 3.158-2.042 6.4913-2 10h-1v-9c0-0.6667 0.333-1 1-1z" fill="#744002"/>
 <path d="m296.5 33.5h1v1c0.16 1.6992-6e-3 3.3659-0.5 5-0.417 1.256-1.25 1.9226-2.5 2 1.066-2.2014 1.733-4.5347 2-7v-1z" fill="#6f1a28" opacity=".98"/>
 <path d="m113.5 28.5h4v15c-0.973-2.4479-1.306-5.1146-1-8 0.299-2.104-0.034-4.104-1-6-0.607 0.1236-0.94 0.4569-1 1h-1v-2z" fill="#d0ad34"/>
 <path d="m132.5 39.5h27c-5.81 0.9896-11.81 1.3229-18 1h-8v6c-0.968-2.1074-1.302-4.4407-1-7z" fill="#e0ad19"/>
 <path d="m184.5 36.5h8v8c-3.072 0.3174-6.072-0.0159-9-1-1.035-1.6284-1.035-3.295 0-5-0.172-0.9916 0.162-1.6583 1-2z" fill="#3a251f"/>
 <path d="m224.5 30.5c0.617 0.1107 1.117 0.444 1.5 1 0.175 4.5195 0.675 8.8528 1.5 13v1c-0.996 0.0858-1.829-0.2476-2.5-1-0.499-4.6548-0.666-9.3215-0.5-14z" fill="#8f4203"/>
 <path d="m252.5 24.5h1c-0.237 1.291 0.096 2.291 1 3-0.969 8.2483-1.302 16.582-1 25-3.667 1.3333-7.333 1.3333-11 0h10v-28z" fill="#a24f05"/>
 <path d="m27.5 29.5h4c2.0563 0.7161 4.223 1.3828 6.5 2 0.4986 3.6516 0.6653 7.3183 0.5 11-7.136 0.4508-14.136-0.2159-21-2 4.4065-1.2462 8.7398-2.2462 13-3 0.1716-0.9916-0.1618-1.6583-1-2-1.1298-1.8146-1.7964-3.8146-2-6z" fill="#fce50b"/>
 <path d="m44.5 35.5c-0.3909 3.338 0.7757 4.338 3.5 3 3.1275 0.7037 6.2942 1.2037 9.5 1.5 0.8567 0.6891 1.5233 1.5224 2 2.5-1.4542 2.1674-1.2875 4.1674 0.5 6 0.3173-1.8008 0.984-2.1341 2-1 1.2022-2.053 1.5356-4.053 1-6 1.3561-0.8802 2.8561-1.2135 4.5-1h14c-4.47 0.9861-9.1367 1.3195-14 1-1.7892 2.6517-2.7892 5.6517-3 9 1.3734-0.1567 2.7068 0.01 4 0.5-3.6516 0.4986-7.3183 0.6653-11 0.5 0.3128-3.5419-0.0206-6.8752-1-10-4.1344-0.9849-8.4677-1.3182-13-1-0.2845-1.9147 0.0489-3.5813 1-5z" fill="#fdd620"/>
 <path d="m103.5 45.5h-1c0.536-3.1981-0.131-5.8647-2-8v-1-1c0.905-2.3075 2.238-2.3075 4 0 3.268 0.987 6.602 1.3204 10 1v8c-3.871-0.315-7.538 0.0184-11 1z" fill="#3b241d"/>
 <path d="m252.5 8.5h-1-8v43h-1v-44c3.542-0.31277 6.875 0.02056 10 1z" fill="#edd13f"/>
 <path d="m295.5 34.5h1c-0.267 2.4653-0.934 4.7986-2 7h-12v-2c3.726 0.3226 7.393-0.0108 11-1 1.13-1.1223 1.797-2.4557 2-4z" fill="#9d3618"/>
 <path d="m31.5 29.5h8v14c-8.1841-0.3257-16.184 0.0076-24 1v1c0.3417 0.8382 1.0084 1.1716 2 1v1h-5c0.7817-3.0788 1.1151-6.0788 1-9h-8v8c-0.97667-2.7869-1.31-5.7869-1-9h1 25c-4.2602 0.7538-8.5935 1.7538-13 3 6.864 1.7841 13.864 2.4508 21 2 0.1653-3.6817-0.0014-7.3484-0.5-11-2.277-0.6172-4.4437-1.2839-6.5-2z" fill="#f8d320"/>
 <path d="m85.5 36.5c0.322 2.2224-0.3446 4.0557-2 5.5-4.8514 0.1745-9.5181 0.6745-14 1.5v6h-4c1.14-2.5248 1.8067-5.1915 2-8 4.8633 0.3195 9.53-0.0139 14-1l4-4z" fill="#9d3d06"/>
 <path d="m158.5 43.5c-0.617-0.1107-1.117-0.444-1.5-1-4.409 1.0311-8.909 1.6978-13.5 2 1.777-1.1005 3.777-1.9338 6-2.5-2.865-0.1829-5.531-0.6829-8-1.5 6.19 0.3229 12.19-0.0104 18-1h3c-0.763-3.6378 0.57-5.1378 4-4.5 0.935 2.3806 1.268 4.8806 1 7.5-3.213-0.31-6.213 0.0233-9 1z" fill="#fde113"/>
 <path d="m85.5 34.5c1.4313 1.2804 2.0979 2.9471 2 5v1c-1.3333 1-2.6667 2-4 3h-14c4.4819-0.8255 9.1486-1.3255 14-1.5 1.6554-1.4443 2.322-3.2776 2-5.5v-1-1z" fill="#7f2714"/>
 <path d="m100.5 37.5c1.869 2.1353 2.536 4.8019 2 8h-2v-8z" fill="#833509"/>
 <path d="m276.5 33.5c0.238 1.9044 1.238 3.2377 3 4 1 0.6667 2 1.3333 3 2v2c-1.333 0-2 0.6667-2 2h-1c-0.683-1.6765-2.017-2.3432-4-2-0.904 0.709-1.237 1.709-1 3h-19v-3c5.287 0.8424 10.62 1.1757 16 1v-3c0.292-3.3009 1.959-5.3009 5-6z" fill="#3c2328"/>
 <path d="m275.5 41.5c1.983-0.3432 3.317 0.3235 4 2-1.208 0.7341-2.541 1.0674-4 1v-3z" fill="#b2893f"/>
 <path d="m212.5 31.5c0.667 0.3333 1.333 0.6667 2 1v3h-3c0.321 5.5262-0.012 10.86-1 16-0.411-6.834 0.256-13.501 2-20z" fill="#d78f12"/>
 <path d="m297.5 34.5c0.876-0.1309 1.543 0.2025 2 1 1.115 3.1187 1.115 6.1187 0 9h-18c-0.667 0-1-0.3333-1-1 0-1.3333 0.667-2 2-2h12c1.25-0.0774 2.083-0.744 2.5-2 0.494-1.6341 0.66-3.3008 0.5-5z" fill="#3e1f2e"/>
 <path d="m69.5 43.5h14c-1.7307 0.7066-3.3974 1.7066-5 3-2.4686-1.5066-4.6353-1.1732-6.5 1 0.2903 2.9135 0.4569 5.9135 0.5 9h-15v-2h14c0.3799-2.198-0.2868-3.8646-2-5v-6z" fill="#471f19"/>
 <path d="m99.5 47.5c-2.5685 0.2377-4.2352 1.571-5 4-1.3333-1-2.6667-2-4-3v-1-10h8c-0.2471 3.4387 0.0863 6.772 1 10z" fill="#fae10f"/>
 <path d="m101.5 30.5c1.333 1 2.667 2 4 3v1c3.462 0.9816 7.129 1.315 11 1-0.306 2.8854 0.027 5.5521 1 8-4.215 1.9364-8.881 2.6031-14 2 3.462-0.9816 7.129-1.315 11-1v-8c-3.398 0.3204-6.732-0.013-10-1-1.762-2.3075-3.095-2.3075-4 0-0.8764 0.1309-1.5431-0.2025-2-1 0.5351-1.761 1.535-3.0943 3-4z" fill="#492b05"/>
 <path d="m141.5 40.5c2.469 0.8171 5.135 1.3171 8 1.5-2.223 0.5662-4.223 1.3995-6 2.5v1 2c1.068 0.9345 2.401 1.2678 4 1v3c-2.787 0.9767-5.787 1.31-9 1-1.637-1.9752-3.304-3.9752-5-6v-6h8z" fill="#fbdb1b"/>
 <path d="m184.5 36.5c2.787-0.9767 5.787-1.31 9-1h1v10h-13v-6c0.667-0.3333 1.333-0.6667 2-1-1.035 1.705-1.035 3.3716 0 5 2.928 0.9841 5.928 1.3174 9 1v-8h-8z" fill="#503008"/>
 <path d="m222.5 27.5c-0.215 1.6788 0.452 2.6788 2 3-0.166 4.6785 1e-3 9.3452 0.5 14 0.671 0.7524 1.504 1.0858 2.5 1-1.419 0.9511-3.085 1.2845-5 1v-5c-4-0.6667-4-1.3333 0-2 0.458-2.8938-0.209-5.3938-2-7.5 0.599-1.6225 1.266-3.1225 2-4.5z" fill="#face23"/>
 <path d="m275.5 41.5v3 1c-0.972 1.9931-2.305 2.3264-4 1-5.14-0.9881-10.474-1.3214-16-1v-1h19c-0.237-1.291 0.096-2.291 1-3z" fill="#473210"/>
 <path d="m279.5 43.5h1c0 0.6667 0.333 1 1 1v1h-6v-1c1.459 0.0674 2.792-0.2659 4-1z" fill="#954c06"/>
 <path d="m171.5 31.5c0.166 4.6785-1e-3 9.3452-0.5 14-0.717 0.5442-1.217 1.2109-1.5 2h-26v-2h26v-13c0.342-0.8382 1.008-1.1716 2-1z" fill="#a13f02"/>
 <path d="m255.5 45.5c5.526-0.3214 10.86 0.0119 16 1h-13c-1.808 1.4179-2.475 3.4179-2 6-0.968-2.1074-1.302-4.4407-1-7z" fill="#aa911f"/>
 <path d="m2.5 36.5c0.66667 0.3333 1.3333 0.6667 2 1-0.31 3.2131 0.02333 6.2131 1 9 0.66667 1.3333 1.6667 2.3333 3 3 0.43205 1.2095 1.0987 2.2095 2 3v2c-2.95-2.1205-5.45-4.7872-7.5-8-0.49834-3.3168-0.66501-6.6501-0.5-10z" fill="#502903" opacity=".039"/>
 <path d="m89.5 36.5h11v1 8c9 0.6667 18 1.3333 27 2-0.667 1.3333-1.667 2.3333-3 3v-3c-8.581 0.0796-16.915 0.0796-25 0-0.9137-3.228-1.2471-6.5613-1-10h-8v10c-0.9816-3.4619-1.315-7.1286-1-11z" fill="#f4ce30"/>
 <path d="m233.5 19.5c0.253 2.3273-0.414 4.3273-2 6-0.831 6.9764-1.331 13.976-1.5 21-2.122 0.7199-2.622 1.8866-1.5 3.5 2.31 0.4966 4.643 0.6633 7 0.5v1c-5.475 0.9889-11.142 1.3222-17 1-2.322-1.3021-3.655-3.3021-4-6-0.042-3.5087 0.624-6.842 2-10 0.835 3.4937 0.835 7.1603 0 11 2.412-0.1695 4.579 0.4972 6.5 2 0.5-0.3333 1-0.6667 1.5-1-0.743-0.6818-1.409-1.3485-2-2 1.915 0.2845 3.581-0.0489 5-1h1c0.667-8.8423 1.333-17.842 2-27 0.586-0.2093 1.086-0.5426 1.5-1 0.278 0.9158 0.778 1.5825 1.5 2z" fill="#fad91c"/>
 <path d="m275.5 45.5h6c6.098-0.6167 11.765 0.05 17 2h-1c-0.342-0.8382-1.008-1.1716-2-1-7.424-0.2794-14.757 0.3873-22 2-1.213-0.2472-1.88-0.9138-2-2 1.695 1.3264 3.028 0.9931 4-1z" fill="#d4af26"/>
 <path d="m17.5 47.5c1.0063 0.4377 1.0063 1.1043 0 2h-9c-1.3333-0.6667-2.3333-1.6667-3-3v-8h8c0.1151 2.9212-0.2183 5.9212-1 9h5z" fill="#f9e112"/>
 <path d="m99.5 47.5c8.085 0.0796 16.419 0.0796 25 0v3c-2.415 1.3142-5.248 1.9809-8.5 2-3.485-0.132-6.818-0.7986-10-2-3.565 1.7894-7.3983 2.456-11.5 2v-1c0.7648-2.429 2.4315-3.7623 5-4z" fill="#fcd21e"/>
 <path d="m204.5 30.5c1.109 0.0569 2.109 0.3902 3 1 1.471 2.5624 2.138 5.3957 2 8.5-0.304 3.511-0.637 7.011-1 10.5h-4v-20z" fill="#fee409"/>
 <path d="m299.5 44.5c2.46 2.9246 2.294 5.9246-0.5 9-0.671 0.7524-1.504 1.0858-2.5 1 2.478-2.8291 3.478-6.1625 3-10z" fill="#5e1936" opacity=".475"/>
 <path d="m17.5 47.5v-1c8.34-0.1664 16.673 3e-4 25 0.5-0.8281 1.9923-2.1614 3.4923-4 4.5-5.3437 0.166-10.677-6e-4 -16-0.5l1-1c-1.9727-0.4955-3.9727-0.6621-6-0.5 1.0063-0.8957 1.0063-1.5623 0-2z" fill="#fcde21"/>
 <path d="m194.5 33.5c0.982 3.4619 1.315 7.1286 1 11v3c-0.992-0.1716-1.658 0.1618-2 1-1.604 0.787-2.271 2.1203-2 4h-14c-1.252-1.5009-2.252-3.1675-3-5-0.313-2.7469 0.02-5.4135 1-8 1.15 2.1088 2.484 4.1088 4 6 5.152 1.3137 10.152 1.3137 15 0v-10-2z" fill="#f9d822"/>
 <path d="m213.5 46.5h1c0.345 2.6979 1.678 4.6979 4 6 2.671 1.6181 5.671 2.2847 9 2-4.498 0.8754-9.165 0.8754-14 0v-8z" fill="#4d2613"/>
 <path d="m8.5 49.5h9c2.0273-0.1621 4.0273 0.0045 6 0.5l-1 1c5.3229 0.4994 10.656 0.666 16 0.5-2.6459 0.6644-5.4792 0.9978-8.5 1-3.4848-0.132-6.8181-0.7986-10-2-2.9353 1.6916-6.1019 2.3583-9.5 2-0.90128-0.7905-1.568-1.7905-2-3z" fill="#fcc42e"/>
 <path d="m87.5 40.5c0.2854 3.5248-0.3813 6.8582-2 10 0.6869 1.6772 1.3535 3.3439 2 5-4.9376 0.8924-9.9376 1.2257-15 1-0.0431-3.0865-0.2097-6.0865-0.5-9 1.8647-2.1732 4.0314-2.5066 6.5-1 1.6026-1.2934 3.2693-2.2934 5-3 1.3333-1 2.6667-2 4-3z" fill="#332220"/>
 <path d="m173.5 47.5h1c0.748 1.8325 1.748 3.4991 3 5v1c-2.322-1.3021-3.655-3.3021-4-6z" fill="#6f4f06"/>
 <path d="m258.5 46.5c-0.734 1.2079-1.067 2.5413-1 4 12.338 0.1665 24.671-1e-4 37-0.5 0.837-1.0113 1.17-2.1779 1-3.5 0.992-0.1716 1.658 0.1618 2 1-0.617 1.7292-1.617 3.2292-3 4.5-12.329 0.4999-24.662 0.6665-37 0.5h-1c-0.475-2.5821 0.192-4.5821 2-6z" fill="#f8b82c"/>
 <path d="m258.5 46.5h13c0.12 1.0862 0.787 1.7528 2 2 7.243-1.6127 14.576-2.2794 22-2 0.17 1.3221-0.163 2.4887-1 3.5-12.329 0.4999-24.662 0.6665-37 0.5-0.067-1.4587 0.266-2.7921 1-4z" fill="#f4d615"/>
 <path d="m54.5 43.5c-3.1248 0.9794-6.4581 1.3128-10 1 0.1633 2.3568-0.0034 4.6902-0.5 7-0.7083 0.8805-1.5416 1.5472-2.5 2v-1c2.0446-2.1965 2.3779-4.5298 1-7 3.5293-1.9228 7.5293-2.5894 12-2z" fill="#5c2015"/>
 <path d="m54.5 43.5h2c-0.31 3.2131 0.0233 6.2131 1 9v2 2c-11.573-0.3226-23.24 0.0108-35 1 0.8984-0.6577 1.8984-1.3243 3-2 5.4853-0.6668 10.819-1.3335 16-2 0.9584-0.4528 1.7917-1.1195 2.5-2 0.4966-2.3098 0.6633-4.6432 0.5-7 3.5419 0.3128 6.8752-0.0206 10-1z" fill="#372319"/>
 <path d="m56.5 41.5c0.9794 3.1248 1.3128 6.4581 1 10 3.6817 0.1653 7.3484-0.0014 11-0.5-1.2932-0.49-2.6266-0.6567-4-0.5 0.2108-3.3483 1.2108-6.3483 3-9-0.1933 2.8085-0.86 5.4752-2 8h4v3h-12c-0.9767-2.7869-1.31-5.7869-1-9v-2z" fill="#dfa232"/>
 <path d="m87.5 39.5c0.8213 3.1414 1.3213 6.4748 1.5 10 0.3826-0.556 0.8826-0.8893 1.5-1 1.3333 1 2.6667 2 4 3v1c0.1107 0.6174 0.444 1.1174 1 1.5 4.3706 0.6292 8.704 0.4625 13-0.5-0.237 1.291 0.096 2.291 1 3v1c-7.096-1.8871-14.43-2.5537-22-2-0.6465-1.6561-1.3131-3.3228-2-5 1.6187-3.1418 2.2854-6.4752 2-10v-1z" fill="#3b2417"/>
 <path d="m138.5 55.5c-4.51-0.4053-9.176-0.4053-14 0v-2c1.527 0.073 2.527-0.5937 3-2 1-0.3333 1.667-1 2-2 1.238-0.9124 2.572-1.0791 4-0.5 2.039 1.9263 3.706 4.093 5 6.5z" fill="#46353d"/>
 <path d="m15.5 45.5h27c1.3779 2.4702 1.0446 4.8035-1 7-6.7838 0.4373-13.45 1.4373-20 3-3.5641-0.9227-7.2307-1.256-11-1v-2c3.3981 0.3583 6.5647-0.3084 9.5-2 3.1819 1.2014 6.5152 1.868 10 2 3.0208-0.0022 5.8541-0.3356 8.5-1 1.8386-1.0077 3.1719-2.5077 4-4.5-8.3267-0.4997-16.66-0.6664-25-0.5-0.9916 0.1716-1.6583-0.1618-2-1z" fill="#a85b0f"/>
 <path d="m127.5 47.5h1c-0.333 1.3333-0.667 2.6667-1 4-0.473 1.4063-1.473 2.073-3 2h-11v4h-4v-1h3v-3h-4c-4.296 0.9625-8.6294 1.1292-13 0.5-0.556-0.3826-0.8893-0.8826-1-1.5 4.1017 0.456 7.935-0.2106 11.5-2 3.182 1.2014 6.515 1.868 10 2 3.252-0.0191 6.085-0.6858 8.5-2 1.333-0.6667 2.333-1.6667 3-3z" fill="#a4490d"/>
 <path d="m214.5 35.5v1c-0.667 0-1 0.3333-1 1-0.688 5.0667-1.355 10.233-2 15.5-11.328 0.4999-22.662 0.6665-34 0.5v-1h14c-0.271-1.8797 0.396-3.213 2-4 0.934 1.0676 1.268 2.401 1 4h7 2c2.559 0.3016 4.893-0.0318 7-1 0.988-5.1405 1.321-10.474 1-16h3z" fill="#a04407"/>
 <path d="m297.5 47.5h1c-0.34 2.179-1.34 4.0123-3 5.5-12.84 0.8267-25.507 0.66-38-0.5 12.338 0.1665 24.671-1e-4 37-0.5 1.383-1.2708 2.383-2.7708 3-4.5z" fill="#9b3808"/>
 <path d="m41.5 52.5v1c-5.1813 0.6665-10.515 1.3332-16 2-1.1016 0.6757-2.1016 1.3423-3 2-0.6667 0-1-0.3333-1-1v-1c6.5495-1.5627 13.216-2.5627 20-3z" fill="#7b300e"/>
 <path d="m69.5 49.5c1.7132 1.1354 2.3799 2.802 2 5h-14v-2h12v-3z" fill="#83350c"/>
 <path d="m124.5 53.5v2c-4.336 0.2785-8.503 1.2785-12.5 3-1.07-0.028-1.903-0.3614-2.5-1h4v-4h11z" fill="#692515"/>
 <path d="m213.5 37.5v9 8c-11.781 0.3637-23.448 0.697-35 1-0.333-0.6667-0.667-1.3333-1-2 11.338 0.1665 22.672-1e-4 34-0.5 0.645-5.2666 1.312-10.433 2-15.5z" fill="#692110"/>
 <path d="m10.5 54.5c3.7693-0.256 7.4359 0.0773 11 1v1c-3.8875-0.1459-7.5542-0.8126-11-2z" fill="#4b2015"/>
 <path d="m130.5 31.5c1.808 1.4179 2.475 3.4179 2 6v2c-0.302 2.5593 0.032 4.8926 1 7 1.696 2.0248 3.363 4.0248 5 6 4.233 1.2943 8.566 1.2943 13 0-0.172 0.9916 0.162 1.6583 1 2 0.597 0.6386 1.43 0.972 2.5 1 5.226-0.5861 10.393-1.2528 15.5-2 0.48-2.5783 1.48-4.9116 3-7v1c0.345 2.6979 1.678 4.6979 4 6 0.333 0.6667 0.667 1.3333 1 2-13.503 0.7463-26.836 0.7463-40 0-1.294-2.407-2.961-4.5737-5-6.5-1.428-0.5791-2.762-0.4124-4 0.5-0.323-6.19 0.01-12.19 1-18z" fill="#4c2414"/>
 <path d="m169.5 47.5c0.961 1.7646 1.295 3.7646 1 6-5.107 0.7472-10.274 1.4139-15.5 2-1.07-0.028-1.903-0.3614-2.5-1 1.291 0.2373 2.291-0.096 3-1v-1h14v-5z" fill="#9f470e"/>
 <path d="m148.5 50.5c1.679-0.2148 2.679 0.4519 3 2-4.434 1.2943-8.767 1.2943-13 0 3.213 0.31 6.213-0.0233 9-1 0.667 0 1-0.3333 1-1z" fill="#a14c0c"/>
 <path d="m148.5 50.5c1.068-0.9345 2.401-1.2678 4-1v4h3c-0.709 0.904-1.709 1.2373-3 1-0.838-0.3417-1.172-1.0084-1-2-0.321-1.5481-1.321-2.2148-3-2z" fill="#cb8d1f"/>
 <path d="m155.5 52.5v1h-3v-4c5.14-0.9881 10.474-1.3214 16-1v3c-4.532-0.3182-8.866 0.0151-13 1z" fill="#fed81b"/>
 <path d="m143.5 47.5h26v5h-14c4.134-0.9849 8.468-1.3182 13-1v-3c-5.526-0.3214-10.86 0.0119-16 1-1.599-0.2678-2.932 0.0655-4 1 0 0.6667-0.333 1-1 1v-3c-1.599 0.2678-2.932-0.0655-4-1z" fill="#fdc12e"/>
 <path d="m108.5 53.5h4v3h-3c-0.904-0.709-1.237-1.709-1-3z" fill="#e0a444"/>
</svg>
